<svg height="244" viewBox="0 0 244 244" width="244" xmlns="http://www.w3.org/2000/svg"><g fill="none"><path d="m423.715 501.216h22.131v-49.49h-22.131" stroke="#344154" stroke-linecap="round" stroke-linejoin="round" stroke-width="3" transform="translate(-384.835 -402.839)"/><path d="m442.109 458.151h8.3v34.031h-8.3" stroke="#344154" stroke-linecap="round" stroke-linejoin="round" stroke-width="3" transform="translate(-381.097 -401.535)"/><path d="m503.153 482.315-5.242-2.622a3.716 3.716 0 0 0 -4.929 1.556 3.714 3.714 0 0 0 1.518 5.045l9.183 4.9a2.87 2.87 0 0 0 2.772-.04l10.407-5.934a2.7 2.7 0 0 0 .811-3.986l-14.6-19.159a9.962 9.962 0 0 0 -7.923-3.923h-46.143" stroke="#344154" stroke-linecap="round" stroke-linejoin="round" stroke-width="3" transform="translate(-379.696 -401.535)"/><path d="m510.326 484.7.159.1a5.714 5.714 0 0 1 .061 9.575l-5.47 3.664a7.276 7.276 0 0 1 -5.693 1.043c-15.551-3.628-24.079-10.4-28.333-15.068a15.14 15.14 0 0 0 -11.177-4.989h-10.866" stroke="#344154" stroke-linecap="round" stroke-linejoin="round" stroke-width="3" transform="translate(-379.696 -397.294)"/><path d="m495.437 485.887s2.778 3.695.872 10.314" stroke="#344154" stroke-linecap="round" stroke-linejoin="round" stroke-width="3" transform="translate(-370.263 -395.9)"/></g><path d="m41.414 57.309h11.041v32.645h-11.041z" fill="#5767fa"/><path d="m505.414 554.844h-6.149a29.32 29.32 0 0 1 -16.464-5.058l-4.494-3.05a1.659 1.659 0 0 1 -.5-2.263 7.737 7.737 0 0 1 2.574-2.4 7.608 7.608 0 0 1 7.177-.053 19.549 19.549 0 0 0 15.745.635 50.686 50.686 0 0 1 7.721-4 32.468 32.468 0 0 1 31.08 3.8" fill="none" stroke="#344154" stroke-linecap="round" stroke-linejoin="round" stroke-width="3" transform="translate(-373.898 -385.656)"/><path d="m547.154 564.452s-13.9-2.7-38.226-1.315a35.364 35.364 0 0 1 -18.5-4.072l-36.983-19.509a1.455 1.455 0 0 1 -.457-2.19c1.321-1.7 4.335-4.044 10.363-2.453a14.726 14.726 0 0 1 2 .715l18.607 7.935" fill="none" stroke="#344154" stroke-linecap="round" stroke-linejoin="round" stroke-width="3" transform="translate(-378.951 -386.046)"/><path d="m545.192 572.738h-13.68v-35.294h13.68" fill="none" stroke="#344154" stroke-linecap="round" stroke-linejoin="round" stroke-width="3" transform="translate(-362.935 -385.425)"/><path d="m564.337 583.842h-21.455v-54.975h21.455" fill="none" stroke="#344154" stroke-linecap="round" stroke-linejoin="round" stroke-width="3" transform="translate(-360.625 -387.167)"/><path d="m548.1 534.085h12.133l-.031.133a99.711 99.711 0 0 0 -.618 42.286h-11.484z" fill="#ff6969" transform="translate(-359.565 -386.107)"/><g fill="none"><g stroke="#344154" stroke-linecap="round" stroke-linejoin="round" stroke-width="1.635"><path d="m467.932 518.976a10.1 10.1 0 1 0 7.215-13" transform="translate(-375.852 -391.875)"/><path d="m484.574 512.328 19.264 6.214 2 3.9a2.435 2.435 0 0 1 -1.058 3.277l-3.9 2-2.962-.955-3.013 1.544-1.512-2.949-3.013 1.542-1.5-3-3.013 1.542-1.511-2.951-2.552-.823" transform="translate(-373.034 -390.527)"/><path d="m114.731 128.069 11.671 3.766"/><path d="m475.411 518.058a3.541 3.541 0 1 0 -2.282-4.458 3.541 3.541 0 0 0 2.282 4.458z" transform="translate(-374.831 -390.767)"/><path d="m482.045 506.8a10.1 10.1 0 1 0 4.089 14.294" transform="translate(-375.958 -391.869)"/></g><g stroke="#424174" stroke-width="2"><circle cx="122" cy="122" r="122" stroke="none"/><circle cx="122" cy="122" fill="none" r="121"/></g></g></svg>